<svg width="276" height="49" viewBox="0 0 276 49" fill="none" xmlns="http://www.w3.org/2000/svg">
<g clip-path="url(#clip0_38_137)">
<path d="M84.9932 48.5784C84.0967 48.1938 83.3375 47.5485 82.815 46.7269C82.2925 45.9053 82.031 44.9456 82.0647 43.9735V43.8762C82.0488 42.9055 82.3082 41.95 82.8131 41.1197C83.3482 40.3091 84.1046 39.6678 84.9932 39.2713C87.0874 38.4083 89.4395 38.4083 91.5336 39.2713C92.4222 39.6678 93.1786 40.3091 93.7138 41.1197C94.2187 41.95 94.4781 42.9055 94.4622 43.8762V43.9735C94.5098 44.9482 94.2539 45.9139 93.7297 46.7382C93.2055 47.5625 92.4385 48.2052 91.5336 48.5784C89.4395 49.4414 87.0874 49.4414 84.9932 48.5784ZM91.6638 44.0383V43.8438C91.6883 43.4678 91.6212 43.0916 91.4682 42.7472C91.3153 42.4027 91.0809 42.1002 90.7852 41.8656C90.2429 41.4116 89.3969 41.1846 88.2472 41.1846C87.1408 41.1846 86.3273 41.4116 85.7416 41.8656C85.448 42.102 85.2151 42.4048 85.0623 42.7488C84.9096 43.0928 84.8412 43.4682 84.863 43.8438V44.0383C84.8451 44.4056 84.912 44.772 85.0587 45.1094C85.2054 45.4467 85.4279 45.746 85.7091 45.9841C86.2948 46.4381 87.1408 46.6651 88.2472 46.6651C90.5249 46.6651 91.6638 45.7895 91.6638 44.0383Z" fill="#005BBB"/>
<path d="M114.506 38.8499V49.0001H111.903L106.567 42.7089V49.0001H103.964V38.8499H106.567L111.903 45.1086V38.8499H114.506Z" fill="#005BBB"/>
<path d="M127.229 38.8499V46.5679H133.867V49.0001H124.496V38.8499H127.229Z" fill="#005BBB"/>
<path d="M145.549 38.8499V49.0001H142.816V38.8499H145.549Z" fill="#005BBB"/>
<path d="M165.919 38.8499V49.0001H163.348L157.979 42.7089V49.0001H155.376V38.8499H157.979L163.316 45.1086V38.8499H165.919Z" fill="#005BBB"/>
<path d="M185.182 38.8499V41.2172H178.674V42.7413H184.857V45.0762H178.674V46.6328H185.182V49.0001H175.908V38.8499H185.182Z" fill="#005BBB"/>
<path d="M0 2.9187H5.69441V10.5719H12.9833V2.9187H18.6451V23.3489H12.9833V15.5984H5.69441V23.3489H0V2.9187Z" fill="#005BBB"/>
<path d="M22.2896 2.9187H38.7871V7.7506H27.9189V10.8313H37.7458V15.3065H27.9189V18.5494H38.9172V23.3489H22.2896V2.9187Z" fill="#005BBB"/>
<path d="M41.8132 2.9187H47.5076V18.3873H57.4322V23.3489H41.8132V2.9187Z" fill="#005BBB"/>
<path d="M59.8727 2.9187H68.6583C73.8321 2.9187 77.1512 5.57787 77.1512 10.1179V10.1828C77.1512 14.9822 73.4417 17.5117 68.3655 17.5117H65.5346V23.3489H59.8727V2.9187ZM68.2353 13.1014C70.2528 13.1014 71.4893 12.0312 71.4893 10.4422V10.3773C71.4893 8.62618 70.2528 7.68574 68.2028 7.68574H65.5346V13.1014H68.2353Z" fill="#005BBB"/>
<path d="M139.009 17.317V5.83716H144.768V17.2197C144.768 20.1383 146.265 21.5652 148.543 21.5652C150.821 21.5652 152.317 20.2031 152.317 17.3494V5.83716H158.109V17.1873C158.109 23.7703 154.335 26.6565 148.478 26.6565C142.621 26.6565 139.009 23.7055 139.009 17.317Z" fill="#FFD500"/>
<path d="M161.461 5.83716H167.155V14.1389L174.216 5.83716H180.952L173.175 14.6254L181.212 26.2673H174.379L169.238 18.679L167.155 21.0139V26.2673H161.461V5.83716Z" fill="#FFD500"/>
<path d="M182.839 5.83716H192.536C195.66 5.83716 197.84 6.68031 199.207 8.07475C200.573 9.46919 201.029 10.7988 201.029 12.8418C201.029 15.9874 199.37 18.0628 196.799 19.133L201.712 26.2673H195.139L191.007 20.1059H188.534V26.2673H182.839V5.83716ZM192.276 15.6631C194.196 15.6631 195.335 14.7227 195.335 13.2309V13.1661C195.335 11.5771 194.163 10.7663 192.243 10.7663H188.534V15.6631H192.276Z" fill="#FFD500"/>
<path d="M210.596 5.70752H216.095L224.815 26.2674H218.73L217.234 22.6354H209.327L207.862 26.2674H201.875L210.596 5.70752ZM215.574 18.2251L213.296 12.4203L210.986 18.2251H215.574Z" fill="#FFD500"/>
<path d="M226.93 5.83716H232.625V26.2673H226.93V5.83716Z" fill="#FFD500"/>
<path d="M236.367 5.83716H241.671L250.099 16.636V5.83716H255.728V26.2673H250.749L241.996 15.0794V26.2673H236.367V5.83716Z" fill="#FFD500"/>
<path d="M259.372 5.83716H275.87V10.6691H265.002V13.7498H274.829V18.225H265.002V21.4679H276V26.2673H259.372V5.83716Z" fill="#FFD500"/>
<path d="M110.732 23.3488H111.383C111.713 23.2696 112.007 23.0833 112.219 22.819C112.431 22.5548 112.549 22.2278 112.554 21.8895C112.546 21.5081 112.388 21.1452 112.114 20.8785C111.84 20.6118 111.473 20.4625 111.09 20.4626H101.849C101.645 20.4634 101.443 20.4218 101.256 20.3405C101.07 20.2592 100.902 20.14 100.764 19.9904C100.626 19.8408 100.521 19.6643 100.456 19.472C100.391 19.2796 100.366 19.0758 100.384 18.8736C100.425 18.501 100.605 18.1574 100.888 17.911C101.172 17.6647 101.538 17.5337 101.914 17.544H114.669C115.057 17.544 115.43 17.3903 115.705 17.1166C115.979 16.8429 116.133 16.4717 116.133 16.0847C116.139 15.7372 116.011 15.4008 115.775 15.1443C115.635 14.981 115.46 14.85 115.263 14.7604C115.067 14.6709 114.853 14.6248 114.637 14.6254H101.849C101.643 14.6595 101.432 14.6383 101.238 14.5642C101.044 14.4901 100.872 14.3657 100.742 14.2038C99.8637 13.004 100.71 11.7068 101.849 11.7068H114.702C115.084 11.6983 115.449 11.5409 115.716 11.2681C115.984 10.9953 116.134 10.629 116.133 10.2475C116.135 9.92462 116.026 9.6109 115.825 9.35761C115.624 9.10433 115.343 8.92646 115.027 8.85308H103.801C103.431 8.85526 103.073 8.72055 102.796 8.47497C102.52 8.22939 102.344 7.89039 102.304 7.52349C102.281 7.32296 102.301 7.11984 102.363 6.92755C102.424 6.73526 102.526 6.55817 102.661 6.40799C102.797 6.25781 102.962 6.13795 103.148 6.05633C103.333 5.9747 103.533 5.93317 103.736 5.93448H112.717C113.093 5.94483 113.459 5.8138 113.742 5.56744C114.025 5.32108 114.205 4.97745 114.246 4.6049C114.285 4.39429 114.277 4.17757 114.22 3.97083C114.164 3.76409 114.062 3.57262 113.921 3.41064C113.78 3.24866 113.605 3.12032 113.408 3.03514C113.211 2.94996 112.997 2.91013 112.782 2.9186H97.8137C98.202 2.9186 98.5745 2.76485 98.8491 2.49118C99.1237 2.21751 99.278 1.84633 99.278 1.4593C99.278 1.07227 99.1237 0.70109 98.8491 0.427419C98.5745 0.153747 98.202 0 97.8137 0L84.3749 0C83.5982 0 82.8533 0.307494 82.3041 0.854837C81.7549 1.40218 81.4463 2.14454 81.4463 2.9186V28.5698C81.4447 28.8081 81.5089 29.0422 81.632 29.2464C81.755 29.4507 81.9322 29.6172 82.1439 29.7278C82.3557 29.8383 82.5939 29.8886 82.8325 29.8731C83.0711 29.8576 83.3007 29.777 83.4963 29.64L90.0367 23.4136H110.732V23.3488Z" fill="#005BBB"/>
<path d="M130.841 2.9187H119.485C119.097 2.9187 118.724 3.07245 118.45 3.34612C118.175 3.61979 118.021 3.99097 118.021 4.378C118.021 4.76503 118.175 5.13621 118.45 5.40988C118.724 5.68355 119.097 5.8373 119.485 5.8373H103.736C103.533 5.83599 103.333 5.87752 103.148 5.95914C102.962 6.04077 102.797 6.16063 102.661 6.31081C102.526 6.46099 102.424 6.63807 102.363 6.83037C102.301 7.02266 102.281 7.22578 102.304 7.42631C102.344 7.79321 102.52 8.13221 102.796 8.37779C103.073 8.62336 103.431 8.75808 103.801 8.75589H115.027C115.343 8.82928 115.624 9.00715 115.825 9.26043C116.026 9.51372 116.135 9.82744 116.134 10.1503C116.134 10.5318 115.984 10.8982 115.716 11.1709C115.449 11.4437 115.084 11.6012 114.702 11.6096H101.849C100.71 11.6096 99.8638 12.9068 100.742 14.1067C100.865 14.2803 101.033 14.4174 101.228 14.5031C101.423 14.5889 101.637 14.62 101.849 14.5931H114.669C114.881 14.5905 115.091 14.6358 115.282 14.7257C115.474 14.8156 115.643 14.9477 115.776 15.1119C116.011 15.3684 116.139 15.7049 116.134 16.0524C116.134 16.4394 115.979 16.8106 115.705 17.0843C115.43 17.3579 115.058 17.5117 114.669 17.5117H101.914C101.538 17.5013 101.172 17.6324 100.888 17.8787C100.605 18.1251 100.425 18.4687 100.384 18.8413C100.366 19.0435 100.391 19.2473 100.456 19.4396C100.522 19.6319 100.627 19.8085 100.764 19.9581C100.902 20.1076 101.07 20.2269 101.257 20.3082C101.443 20.3895 101.645 20.4311 101.849 20.4303H111.09C111.478 20.4303 111.851 20.584 112.125 20.8577C112.4 21.1314 112.554 21.5026 112.554 21.8896C112.549 22.2279 112.431 22.5549 112.219 22.8191C112.007 23.0834 111.713 23.2697 111.383 23.3489H105.298C104.951 23.4169 104.641 23.6076 104.424 23.8858C104.207 24.164 104.099 24.5109 104.119 24.8625C104.139 25.2141 104.285 25.5468 104.532 25.799C104.779 26.0513 105.108 26.2061 105.461 26.235C115.19 26.2999 125.147 26.2999 125.147 26.2999L132.143 32.8505C132.298 32.956 132.48 33.0175 132.667 33.0285C132.855 33.0396 133.042 32.9998 133.209 32.9133C133.376 32.8268 133.516 32.697 133.615 32.5375C133.714 32.378 133.767 32.1948 133.77 32.0074V5.8373C133.77 5.06324 133.461 4.32088 132.912 3.77354C132.363 3.2262 131.618 2.9187 130.841 2.9187Z" fill="#FFD500"/>
</g>
<defs>
<clipPath id="clip0_38_137">
<rect width="276" height="49" fill="white"/>
</clipPath>
</defs>
</svg>
