<svg width="31" height="31" viewBox="0 0 31 31" fill="none" xmlns="http://www.w3.org/2000/svg">
<path d="M29.8791 9.07453C29.8625 7.82814 29.6292 6.59413 29.1896 5.42773C28.8083 4.44387 28.2261 3.55034 27.48 2.80425C26.7339 2.05816 25.8404 1.4759 24.8565 1.09468C23.7051 0.662458 22.4887 0.428747 21.2591 0.4035C19.676 0.332736 19.174 0.312988 15.1553 0.312988C11.1366 0.312988 10.6215 0.312988 9.04988 0.4035C7.82082 0.428932 6.60499 0.66264 5.45409 1.09468C4.47008 1.47564 3.57642 2.0578 2.83029 2.80393C2.08417 3.55005 1.502 4.44371 1.12105 5.42773C0.687959 6.57826 0.454755 7.79438 0.431513 9.02351C0.360749 10.6083 0.339355 11.1102 0.339355 15.1289C0.339355 19.1477 0.339355 19.6611 0.431513 21.2344C0.456198 22.4653 0.688237 23.6798 1.12105 24.8334C1.50264 25.8172 2.08524 26.7105 2.83161 27.4563C3.57799 28.2021 4.47173 28.784 5.45574 29.1648C6.60348 29.6144 7.81953 29.8649 9.05152 29.9054C10.6363 29.9762 11.1382 29.9975 15.157 29.9975C19.1757 29.9975 19.6908 29.9975 21.2624 29.9054C22.4919 29.8812 23.7084 29.648 24.8598 29.2159C25.8434 28.8342 26.7367 28.2518 27.4827 27.5057C28.2288 26.7597 28.8112 25.8664 29.1929 24.8828C29.6257 23.7308 29.8577 22.5163 29.8824 21.2837C29.9531 19.7006 29.9745 19.1987 29.9745 15.1783C29.9713 11.1596 29.9713 10.6494 29.8791 9.07453ZM15.1454 22.7286C10.9424 22.7286 7.53751 19.3237 7.53751 15.1207C7.53751 10.9177 10.9424 7.51279 15.1454 7.51279C17.1632 7.51279 19.0983 8.31433 20.525 9.7411C21.9518 11.1679 22.7534 13.103 22.7534 15.1207C22.7534 17.1385 21.9518 19.0736 20.525 20.5003C19.0983 21.9271 17.1632 22.7286 15.1454 22.7286ZM23.0562 9.00541C22.8231 9.00562 22.5923 8.95989 22.377 8.87081C22.1617 8.78173 21.966 8.65107 21.8012 8.48629C21.6365 8.32151 21.5058 8.12586 21.4167 7.91052C21.3277 7.69519 21.2819 7.46441 21.2821 7.23138C21.2821 6.99852 21.328 6.76794 21.4171 6.5528C21.5062 6.33767 21.6368 6.14219 21.8015 5.97753C21.9661 5.81287 22.1616 5.68226 22.3768 5.59315C22.5919 5.50404 22.8225 5.45817 23.0553 5.45817C23.2882 5.45817 23.5188 5.50404 23.7339 5.59315C23.949 5.68226 24.1445 5.81287 24.3092 5.97753C24.4738 6.14219 24.6045 6.33767 24.6936 6.5528C24.7827 6.76794 24.8285 6.99852 24.8285 7.23138C24.8285 8.2122 24.0353 9.00541 23.0562 9.00541Z" fill="white"/>
<path d="M15.1456 20.0626C17.8749 20.0626 20.0875 17.85 20.0875 15.1207C20.0875 12.3913 17.8749 10.1787 15.1456 10.1787C12.4162 10.1787 10.2036 12.3913 10.2036 15.1207C10.2036 17.85 12.4162 20.0626 15.1456 20.0626Z" fill="white"/>
</svg>
