<svg width="29" height="30" viewBox="0 0 29 30" fill="none" xmlns="http://www.w3.org/2000/svg">
<path fill-rule="evenodd" clip-rule="evenodd" d="M5 0.655273C2.23858 0.655273 0 2.89385 0 5.65527V24.6553C0 27.4167 2.23858 29.6553 5 29.6553H24C26.7614 29.6553 29 27.4167 29 24.6553V5.65527C29 2.89385 26.7614 0.655273 24 0.655273H5ZM11.44 13.5008C11.4571 13.5177 11.4743 13.5177 11.5 13.5177L11.4957 13.5261C14.8429 12.3978 15.4171 9.47785 14.9971 6.78604C14.9886 6.6973 15.0829 6.62546 15.1686 6.66772C18.3871 8.16364 22 11.4682 22 16.4588C22 20.2747 18.9443 23.6553 14.5 23.6553C9.75571 23.6553 7 20.3719 7 16.4546C7 14.1811 8.67143 11.8231 10.4714 10.8301C10.5571 10.7836 10.6686 10.8343 10.6771 10.9315C10.7114 11.4301 10.8571 12.7401 11.44 13.5008Z" fill="white"/>
</svg>
