<svg width="29" height="30" viewBox="0 0 29 30" fill="none" xmlns="http://www.w3.org/2000/svg">
<path fill-rule="evenodd" clip-rule="evenodd" d="M5 0.655273C2.23858 0.655273 0 2.89385 0 5.65527V24.6553C0 27.4167 2.23858 29.6553 5 29.6553H24C26.7614 29.6553 29 27.4167 29 24.6553V5.65527C29 2.89385 26.7614 0.655273 24 0.655273H5ZM20.3594 16.4653C21.4694 14.3853 21.6994 11.8253 20.6894 9.65527L11.4994 20.5853C12.0394 21.2953 12.5694 22.0253 12.9894 22.8153C13.3594 23.4853 13.5994 24.1853 13.8394 24.9153L13.8437 24.9316C13.9234 25.231 14.0364 25.6553 14.4194 25.6553C14.7494 25.6553 14.8594 25.3453 14.9494 25.0853C15.0394 24.8053 15.1294 24.5253 15.2294 24.2453C15.2481 24.1929 15.2664 24.1406 15.2847 24.0884C15.3644 23.861 15.4437 23.6348 15.5494 23.4153C15.9194 22.6053 16.4194 21.8553 16.9194 21.1553C17.3052 20.6286 17.7135 20.1176 18.1213 19.6073C18.929 18.5965 19.7347 17.5883 20.3594 16.4653ZM8.23939 15.9953L11.5394 12.0753V12.0853C11.4844 12.4163 11.4844 12.7542 11.5394 13.0853C11.5794 13.2853 11.6394 13.4853 11.7194 13.6553C12.2994 15.0953 13.9194 15.8353 15.3794 15.3353L15.4194 15.3253L11.2494 20.2653C11.0494 19.9953 10.8394 19.7353 10.6294 19.4853C10.5585 19.3956 10.4873 19.306 10.4161 19.2162C9.61306 18.2047 8.79968 17.1801 8.23939 15.9953ZM8.98939 8.28527L8.99939 8.27527L11.9994 10.8053L12.0494 10.8553L8.05939 15.5953C7.08939 13.1853 7.36939 10.3353 8.98939 8.28527ZM13.4194 9.82527L16.6394 6.01527L16.6494 6.02527C18.2905 6.58972 19.6629 7.74466 20.4994 9.26527L17.2994 13.0653V13.0553C17.3694 12.6853 17.3494 12.4153 17.2894 12.0353C17.2494 11.7353 17.1294 11.4353 16.9794 11.1553C16.2994 9.93527 14.7994 9.35527 13.4594 9.81527L13.4194 9.82527ZM16.2194 5.89527L12.3094 10.5453L9.24939 7.97527L9.26939 7.96527C10.5894 6.50527 12.4494 5.65527 14.4194 5.65527C15.0094 5.65527 15.5994 5.73527 16.1794 5.88527L16.2194 5.89527Z" fill="white"/>
</svg>
