<svg width="27" height="27" viewBox="0 0 27 27" fill="none" xmlns="http://www.w3.org/2000/svg">
<g clip-path="url(#clip0_253_9)">
<path d="M5.20509 -0.00012207C2.50807 -0.00012207 0.336426 2.17152 0.336426 4.86854V21.7951C0.336426 24.4922 2.50807 26.6638 5.20509 26.6638H14.3792V16.2399H11.6228V12.4869H14.3792V9.28059C14.3792 6.76152 16.0078 4.44859 19.7594 4.44859C21.2784 4.44859 22.4016 4.59441 22.4016 4.59441L22.3133 8.09906C22.3133 8.09906 21.1678 8.08824 19.9177 8.08824C18.5648 8.08824 18.3479 8.71158 18.3479 9.74641V12.487H22.4208L22.2433 16.2399H18.3479V26.6638H22.1317C24.8287 26.6638 27.0003 24.4922 27.0003 21.7952V4.86857C27.0003 2.17155 24.8287 -9.54064e-05 22.1317 -9.54064e-05L5.20509 -0.00012207Z" fill="#005BBB"/>
</g>
<defs>
<clipPath id="clip0_253_9">
<rect width="26.6639" height="26.6639" fill="white" transform="translate(0.336426)"/>
</clipPath>
</defs>
</svg>
