<svg width="28" height="28" viewBox="0 0 28 28" fill="none" xmlns="http://www.w3.org/2000/svg">
<g clip-path="url(#clip0_253_5)">
<path d="M13.7091 0.0169678C8.02362 0.0169678 6.36083 0.022833 6.03762 0.0496454C4.87086 0.146631 4.14483 0.330338 3.35386 0.724145C2.7443 1.02683 2.26356 1.3777 1.78911 1.86954C0.925035 2.7665 0.401355 3.86999 0.211783 5.18171C0.119615 5.8185 0.092803 5.94837 0.0873568 9.20105C0.085262 10.2853 0.0873568 11.7122 0.0873568 13.6261C0.0873568 19.307 0.0936409 20.9681 0.120872 21.2907C0.215135 22.4261 0.393186 23.1404 0.770235 23.9217C1.49082 25.4173 2.86705 26.5401 4.48836 26.959C5.04975 27.1036 5.66978 27.1832 6.46578 27.2209C6.80303 27.2355 10.2405 27.246 13.68 27.246C17.1195 27.246 20.559 27.2418 20.8879 27.2251C21.8096 27.1817 22.3448 27.1099 22.9366 26.9569C23.7405 26.7508 24.4897 26.3716 25.1319 25.8459C25.7741 25.3202 26.2938 24.6607 26.6547 23.9133C27.0244 23.1508 27.2119 22.4093 27.2967 21.3332C27.3151 21.0986 27.3229 17.3581 27.3229 13.6226C27.3229 9.88645 27.3145 6.15282 27.2961 5.91821C27.2102 4.82477 27.0227 4.08952 26.6411 3.31238C26.3279 2.67621 25.9802 2.20113 25.4754 1.71537C24.5746 0.854855 23.4728 0.331176 22.1596 0.141813C21.5235 0.0498549 21.3967 0.0226235 18.1415 0.0169678H13.7091Z" fill="url(#paint0_radial_253_5)"/>
<path d="M13.7091 0.0169678C8.02362 0.0169678 6.36083 0.022833 6.03762 0.0496454C4.87086 0.146631 4.14483 0.330338 3.35386 0.724145C2.7443 1.02683 2.26356 1.3777 1.78911 1.86954C0.925035 2.7665 0.401355 3.86999 0.211783 5.18171C0.119615 5.8185 0.092803 5.94837 0.0873568 9.20105C0.085262 10.2853 0.0873568 11.7122 0.0873568 13.6261C0.0873568 19.307 0.0936409 20.9681 0.120872 21.2907C0.215135 22.4261 0.393186 23.1404 0.770235 23.9217C1.49082 25.4173 2.86705 26.5401 4.48836 26.959C5.04975 27.1036 5.66978 27.1832 6.46578 27.2209C6.80303 27.2355 10.2405 27.246 13.68 27.246C17.1195 27.246 20.559 27.2418 20.8879 27.2251C21.8096 27.1817 22.3448 27.1099 22.9366 26.9569C23.7405 26.7508 24.4897 26.3716 25.1319 25.8459C25.7741 25.3202 26.2938 24.6607 26.6547 23.9133C27.0244 23.1508 27.2119 22.4093 27.2967 21.3332C27.3151 21.0986 27.3229 17.3581 27.3229 13.6226C27.3229 9.88645 27.3145 6.15282 27.2961 5.91821C27.2102 4.82477 27.0227 4.08952 26.6411 3.31238C26.3279 2.67621 25.9802 2.20113 25.4754 1.71537C24.5746 0.854855 23.4728 0.331176 22.1596 0.141813C21.5235 0.0498549 21.3967 0.0226235 18.1415 0.0169678H13.7091Z" fill="url(#paint1_radial_253_5)"/>
<path d="M13.7027 3.57788C10.9721 3.57788 10.6294 3.58982 9.55687 3.63863C8.48647 3.68764 7.75583 3.85711 7.11653 4.10575C6.45522 4.36256 5.89426 4.7061 5.33539 5.26518C4.7761 5.82405 4.43256 6.38501 4.17491 7.04611C3.92564 7.68563 3.75597 8.41647 3.70779 9.48646C3.66003 10.559 3.64746 10.9019 3.64746 13.6325C3.64746 16.3632 3.65961 16.7049 3.70821 17.7774C3.75743 18.8478 3.9269 19.5784 4.17533 20.2177C4.43235 20.879 4.77589 21.44 5.33497 21.9988C5.89363 22.5581 6.45459 22.9025 7.11548 23.1593C7.75521 23.408 8.48605 23.5774 9.55624 23.6264C10.6287 23.6752 10.9712 23.6872 13.7017 23.6872C16.4326 23.6872 16.7742 23.6752 17.8467 23.6264C18.9171 23.5774 19.6486 23.408 20.2883 23.1593C20.9494 22.9025 21.5096 22.5581 22.0682 21.9988C22.6275 21.44 22.971 20.879 23.2287 20.2179C23.4759 19.5784 23.6455 18.8475 23.6958 17.7776C23.744 16.7051 23.7566 16.3632 23.7566 13.6325C23.7566 10.9019 23.744 10.5592 23.6958 9.48666C23.6455 8.41626 23.4759 7.68563 23.2287 7.04632C22.971 6.38501 22.6275 5.82405 22.0682 5.26518C21.5089 4.70589 20.9496 4.36235 20.2877 4.10575C19.6467 3.85711 18.9157 3.68764 17.8453 3.63863C16.7728 3.58982 16.4313 3.57788 13.6998 3.57788H13.7027ZM12.8008 5.38981C13.0685 5.38939 13.3672 5.38981 13.7027 5.38981C16.3873 5.38981 16.7055 5.39945 17.7657 5.44763C18.746 5.49245 19.278 5.65626 19.6325 5.79388C20.1017 5.97613 20.4362 6.19398 20.7879 6.54589C21.1398 6.8978 21.3577 7.23296 21.5403 7.70217C21.678 8.05618 21.842 8.58824 21.8866 9.56857C21.9348 10.6285 21.9453 10.9469 21.9453 13.6302C21.9453 16.3136 21.9348 16.632 21.8866 17.6919C21.8418 18.6722 21.678 19.2043 21.5403 19.5583C21.3581 20.0275 21.1398 20.3616 20.7879 20.7133C20.436 21.0652 20.1019 21.2831 19.6325 21.4653C19.2785 21.6036 18.746 21.767 17.7657 21.8118C16.7057 21.86 16.3873 21.8704 13.7027 21.8704C11.0179 21.8704 10.6998 21.86 9.63982 21.8118C8.6595 21.7665 8.12744 21.6027 7.7728 21.4651C7.30358 21.2829 6.96843 21.065 6.61652 20.7131C6.2646 20.3612 6.04675 20.0269 5.86409 19.5574C5.72647 19.2034 5.56245 18.6714 5.51784 17.6911C5.46966 16.6311 5.46002 16.3127 5.46002 13.6277C5.46002 10.9427 5.46966 10.626 5.51784 9.56606C5.56266 8.58573 5.72647 8.05367 5.86409 7.69924C6.04633 7.23002 6.2646 6.89487 6.61652 6.54296C6.96843 6.19104 7.30358 5.97319 7.7728 5.79053C8.12723 5.65228 8.6595 5.48889 9.63982 5.44386C10.5674 5.40196 10.9268 5.38939 12.8008 5.3873V5.38981ZM19.0698 7.0593C18.8312 7.0593 18.5979 7.13008 18.3995 7.26268C18.201 7.39527 18.0464 7.58374 17.9551 7.80423C17.8638 8.02472 17.8399 8.26734 17.8865 8.5014C17.9331 8.73547 18.048 8.95045 18.2168 9.11918C18.3856 9.2879 18.6006 9.40278 18.8347 9.44929C19.0688 9.4958 19.3114 9.47184 19.5319 9.38046C19.7523 9.28907 19.9407 9.13436 20.0733 8.93589C20.2058 8.73741 20.2765 8.5041 20.2764 8.26544C20.2764 7.59932 19.736 7.05889 19.0698 7.05889V7.0593ZM13.7027 8.46905C10.8512 8.46905 8.53926 10.781 8.53926 13.6325C8.53926 16.4841 10.8512 18.795 13.7027 18.795C16.5543 18.795 18.8656 16.4841 18.8656 13.6325C18.8656 10.781 16.5541 8.46905 13.7025 8.46905H13.7027ZM13.7027 10.281C15.5536 10.281 17.0543 11.7814 17.0543 13.6325C17.0543 15.4834 15.5536 16.9841 13.7027 16.9841C11.8516 16.9841 10.3512 15.4834 10.3512 13.6325C10.3512 11.7814 11.8516 10.281 13.7027 10.281V10.281Z" fill="white"/>
</g>
<defs>
<radialGradient id="paint0_radial_253_5" cx="0" cy="0" r="1" gradientUnits="userSpaceOnUse" gradientTransform="translate(7.32115 29.3432) rotate(-90) scale(26.986 25.1059)">
<stop stop-color="#FFDD55"/>
<stop offset="0.1" stop-color="#FFDD55"/>
<stop offset="0.5" stop-color="#FF543E"/>
<stop offset="1" stop-color="#C837AB"/>
</radialGradient>
<radialGradient id="paint1_radial_253_5" cx="0" cy="0" r="1" gradientUnits="userSpaceOnUse" gradientTransform="translate(-4.47583 1.9785) rotate(78.6776) scale(12.063 49.7366)">
<stop stop-color="#3771C8"/>
<stop offset="0.128" stop-color="#3771C8"/>
<stop offset="1" stop-color="#6600FF" stop-opacity="0"/>
</radialGradient>
<clipPath id="clip0_253_5">
<rect width="27.2631" height="27.2631" fill="white" transform="translate(0.0732422)"/>
</clipPath>
</defs>
</svg>
